<mxfile host="app.diagrams.net" modified="2021-11-25T15:21:17.432Z" agent="5.0 (Windows NT 10.0; Win64; x64) AppleWebKit/537.36 (KHTML, like Gecko) Chrome/95.0.4638.69 Safari/537.36" etag="bc2_SfrNowEfEtEp23VD" version="15.8.2" type="github">
  <diagram id="SJQmfbvc2cNs7uoPeDBN" name="Page-1">
    <mxGraphModel dx="1038" dy="1744" grid="1" gridSize="10" guides="1" tooltips="1" connect="1" arrows="1" fold="1" page="1" pageScale="1" pageWidth="827" pageHeight="1169" math="0" shadow="0">
      <root>
        <mxCell id="0" />
        <mxCell id="1" parent="0" />
        <mxCell id="KKVEfsLDX_-qeK4bz4M8-4" value="" style="edgeStyle=orthogonalEdgeStyle;rounded=0;orthogonalLoop=1;jettySize=auto;html=1;" edge="1" parent="1" source="KKVEfsLDX_-qeK4bz4M8-1" target="KKVEfsLDX_-qeK4bz4M8-3">
          <mxGeometry relative="1" as="geometry" />
        </mxCell>
        <mxCell id="KKVEfsLDX_-qeK4bz4M8-1" value="operateBar.jsx&lt;br&gt;获取载体列表" style="rounded=1;whiteSpace=wrap;html=1;" vertex="1" parent="1">
          <mxGeometry x="10" y="110" width="120" height="40" as="geometry" />
        </mxCell>
        <mxCell id="KKVEfsLDX_-qeK4bz4M8-2" value="创建事务流程" style="shape=document;whiteSpace=wrap;html=1;boundedLbl=1;" vertex="1" parent="1">
          <mxGeometry x="20" width="120" height="80" as="geometry" />
        </mxCell>
        <mxCell id="KKVEfsLDX_-qeK4bz4M8-7" value="否" style="edgeStyle=orthogonalEdgeStyle;rounded=0;orthogonalLoop=1;jettySize=auto;html=1;" edge="1" parent="1" source="KKVEfsLDX_-qeK4bz4M8-3">
          <mxGeometry relative="1" as="geometry">
            <mxPoint x="270" as="targetPoint" />
          </mxGeometry>
        </mxCell>
        <mxCell id="KKVEfsLDX_-qeK4bz4M8-11" value="是" style="edgeStyle=orthogonalEdgeStyle;rounded=0;orthogonalLoop=1;jettySize=auto;html=1;" edge="1" parent="1" source="KKVEfsLDX_-qeK4bz4M8-3" target="KKVEfsLDX_-qeK4bz4M8-10">
          <mxGeometry relative="1" as="geometry" />
        </mxCell>
        <mxCell id="KKVEfsLDX_-qeK4bz4M8-3" value="判断项目的载体是否存在" style="rhombus;whiteSpace=wrap;html=1;rounded=1;" vertex="1" parent="1">
          <mxGeometry x="230" y="90" width="80" height="80" as="geometry" />
        </mxCell>
        <mxCell id="KKVEfsLDX_-qeK4bz4M8-9" value="" style="edgeStyle=orthogonalEdgeStyle;rounded=0;orthogonalLoop=1;jettySize=auto;html=1;" edge="1" parent="1" source="KKVEfsLDX_-qeK4bz4M8-8" target="KKVEfsLDX_-qeK4bz4M8-3">
          <mxGeometry relative="1" as="geometry" />
        </mxCell>
        <mxCell id="KKVEfsLDX_-qeK4bz4M8-8" value="提醒用户去创建模板" style="rounded=1;whiteSpace=wrap;html=1;" vertex="1" parent="1">
          <mxGeometry x="210" y="-60" width="120" height="60" as="geometry" />
        </mxCell>
        <mxCell id="KKVEfsLDX_-qeK4bz4M8-10" value="" style="whiteSpace=wrap;html=1;rounded=1;" vertex="1" parent="1">
          <mxGeometry x="370" y="100" width="120" height="60" as="geometry" />
        </mxCell>
        <mxCell id="KKVEfsLDX_-qeK4bz4M8-14" style="edgeStyle=orthogonalEdgeStyle;rounded=0;orthogonalLoop=1;jettySize=auto;html=1;exitX=0.5;exitY=1;exitDx=0;exitDy=0;exitPerimeter=0;entryX=0.5;entryY=0;entryDx=0;entryDy=0;entryPerimeter=0;" edge="1" parent="1" source="KKVEfsLDX_-qeK4bz4M8-13" target="KKVEfsLDX_-qeK4bz4M8-15">
          <mxGeometry relative="1" as="geometry">
            <mxPoint x="380" y="360" as="targetPoint" />
          </mxGeometry>
        </mxCell>
        <mxCell id="KKVEfsLDX_-qeK4bz4M8-13" value="开始" style="strokeWidth=2;html=1;shape=mxgraph.flowchart.start_1;whiteSpace=wrap;" vertex="1" parent="1">
          <mxGeometry x="330" y="290" width="100" height="60" as="geometry" />
        </mxCell>
        <mxCell id="KKVEfsLDX_-qeK4bz4M8-17" value="是" style="edgeStyle=orthogonalEdgeStyle;rounded=0;orthogonalLoop=1;jettySize=auto;html=1;exitX=0.5;exitY=1;exitDx=0;exitDy=0;exitPerimeter=0;" edge="1" parent="1" source="KKVEfsLDX_-qeK4bz4M8-15">
          <mxGeometry relative="1" as="geometry">
            <mxPoint x="380" y="500" as="targetPoint" />
          </mxGeometry>
        </mxCell>
        <mxCell id="KKVEfsLDX_-qeK4bz4M8-15" value="本单截止时间小于申请延期的时间" style="strokeWidth=2;html=1;shape=mxgraph.flowchart.decision;whiteSpace=wrap;" vertex="1" parent="1">
          <mxGeometry x="270" y="380" width="220" height="80" as="geometry" />
        </mxCell>
        <mxCell id="KKVEfsLDX_-qeK4bz4M8-16" value="延期审批" style="strokeWidth=2;html=1;shape=mxgraph.flowchart.document2;whiteSpace=wrap;size=0.25;" vertex="1" parent="1">
          <mxGeometry x="20" y="300" width="100" height="60" as="geometry" />
        </mxCell>
        <mxCell id="KKVEfsLDX_-qeK4bz4M8-20" value="" style="edgeStyle=orthogonalEdgeStyle;rounded=0;orthogonalLoop=1;jettySize=auto;html=1;" edge="1" parent="1" source="KKVEfsLDX_-qeK4bz4M8-18" target="KKVEfsLDX_-qeK4bz4M8-19">
          <mxGeometry relative="1" as="geometry" />
        </mxCell>
        <mxCell id="KKVEfsLDX_-qeK4bz4M8-18" value="向上审批置为true" style="rounded=1;whiteSpace=wrap;html=1;absoluteArcSize=1;arcSize=14;strokeWidth=2;" vertex="1" parent="1">
          <mxGeometry x="330" y="500" width="100" height="40" as="geometry" />
        </mxCell>
        <mxCell id="KKVEfsLDX_-qeK4bz4M8-30" value="是" style="edgeStyle=orthogonalEdgeStyle;rounded=0;orthogonalLoop=1;jettySize=auto;html=1;exitX=0.5;exitY=1;exitDx=0;exitDy=0;entryX=0.5;entryY=0;entryDx=0;entryDy=0;entryPerimeter=0;" edge="1" parent="1" source="KKVEfsLDX_-qeK4bz4M8-19" target="KKVEfsLDX_-qeK4bz4M8-24">
          <mxGeometry relative="1" as="geometry" />
        </mxCell>
        <mxCell id="KKVEfsLDX_-qeK4bz4M8-19" value="&lt;div&gt;单据有父单 &amp;amp;&amp;amp;&lt;/div&gt;&lt;div&gt;（审批人是父单的创建者&lt;/div&gt;&lt;div&gt;||是父单执行者）&amp;amp;&amp;amp;&lt;/div&gt;&lt;div&gt;（申请延期的时间&amp;gt;父单的截止时间）&lt;/div&gt;" style="rhombus;whiteSpace=wrap;html=1;rounded=1;strokeWidth=2;arcSize=14;" vertex="1" parent="1">
          <mxGeometry x="245" y="570" width="270" height="120" as="geometry" />
        </mxCell>
        <mxCell id="KKVEfsLDX_-qeK4bz4M8-25" value="是" style="edgeStyle=orthogonalEdgeStyle;rounded=0;orthogonalLoop=1;jettySize=auto;html=1;exitX=0.5;exitY=1;exitDx=0;exitDy=0;exitPerimeter=0;entryX=0.5;entryY=0;entryDx=0;entryDy=0;" edge="1" parent="1" source="KKVEfsLDX_-qeK4bz4M8-24" target="KKVEfsLDX_-qeK4bz4M8-26">
          <mxGeometry relative="1" as="geometry">
            <mxPoint x="380" y="940" as="targetPoint" />
          </mxGeometry>
        </mxCell>
        <mxCell id="KKVEfsLDX_-qeK4bz4M8-27" value="否" style="edgeStyle=orthogonalEdgeStyle;rounded=0;orthogonalLoop=1;jettySize=auto;html=1;exitX=1;exitY=0.5;exitDx=0;exitDy=0;exitPerimeter=0;" edge="1" parent="1" source="KKVEfsLDX_-qeK4bz4M8-24" target="KKVEfsLDX_-qeK4bz4M8-28">
          <mxGeometry relative="1" as="geometry">
            <mxPoint x="490" y="880" as="targetPoint" />
          </mxGeometry>
        </mxCell>
        <mxCell id="KKVEfsLDX_-qeK4bz4M8-26" value="显示：同步更新父事务创建者 复选框；" style="rounded=1;whiteSpace=wrap;html=1;absoluteArcSize=1;arcSize=14;strokeWidth=2;" vertex="1" parent="1">
          <mxGeometry x="330" y="870" width="100" height="60" as="geometry" />
        </mxCell>
        <mxCell id="KKVEfsLDX_-qeK4bz4M8-28" value="显示：像父事务发起申请，父事务同意后申请复选框" style="rounded=1;whiteSpace=wrap;html=1;absoluteArcSize=1;arcSize=14;strokeWidth=2;" vertex="1" parent="1">
          <mxGeometry x="480" y="730" width="100" height="100" as="geometry" />
        </mxCell>
        <mxCell id="KKVEfsLDX_-qeK4bz4M8-24" value="用户是父单创建者" style="strokeWidth=2;html=1;shape=mxgraph.flowchart.decision;whiteSpace=wrap;" vertex="1" parent="1">
          <mxGeometry x="330" y="730" width="100" height="100" as="geometry" />
        </mxCell>
      </root>
    </mxGraphModel>
  </diagram>
</mxfile>
